<?xml version="1.0" standalone="no"?><!DOCTYPE svg PUBLIC "-//W3C//DTD SVG 1.1//EN" "http://www.w3.org/Graphics/SVG/1.1/DTD/svg11.dtd"><svg t="1615273787335" class="icon" viewBox="0 0 1024 1024" version="1.1" xmlns="http://www.w3.org/2000/svg" p-id="5783" width="32" height="32" xmlns:xlink="http://www.w3.org/1999/xlink"><defs><style type="text/css"></style></defs><path d="M608.864 671.808c-34.304 0-60.896-2.656-68.544-3.488-17.568-1.984-30.208-17.792-28.256-35.328 1.952-17.504 17.504-30.144 35.328-28.288 79.648 8.736 201.696 1.184 223.04-43.2 7.616-15.904 26.688-22.688 42.688-15.008 15.936 7.648 22.656 26.752 15.008 42.688C794.4 659.328 683.36 671.808 608.864 671.808z" p-id="5784" fill="#1296db"></path><path d="M896 640c-17.696 0-32-14.304-32-32l0-110.272-42.752-15.232C808.512 477.952 800 465.888 800 452.352c0-158.784-129.184-288-288-288-158.784 0-288 129.216-288 288 0 10.336-4.992 20.032-13.408 26.048L192 491.648 192 608c0 17.696-14.336 32-32 32s-32-14.304-32-32l0-132.832c0-10.336 4.992-20.032 13.408-26.048l18.976-13.504C169.184 249.248 323.52 100.352 512 100.352c186.432 0 339.456 145.664 351.296 329.184l43.456 15.488C919.488 449.568 928 461.632 928 475.168L928 608C928 625.696 913.696 640 896 640z" p-id="5785" fill="#1296db"></path><path d="M640 783.808l0-9.696c28.032-21.888 50.368-42.944 63.68-72.8-29.152 4.608-61.6 2.976-87.712 2.976-32 0-59.328 0.864-75.968-0.992-35.136-3.872-60.448-38.72-56.544-73.856 3.904-35.168 35.84-60.64 70.656-56.544 71.264 7.648 149.792-0.672 181.28-14.016 1.344-29.216 0.96-60.032 0.96-83.456 0-136.928-83.264-218.176-216.736-221.12-0.768-0.064-18.816-0.064-19.52-0.064-133.504 2.752-213.536 84.928-213.536 222.08 0 84.672 1.44 222.816 97.44 297.792l0 9.696c-128 20.032-225.952 72.512-225.952 142.016C158.048 943.488 172.864 960 190.56 960L818.56 960c17.696 0 39.936-16.512 39.936-34.176C858.496 856.32 768 803.84 640 783.808z" p-id="5786" fill="#1296db"></path></svg>