<?xml version="1.0" standalone="no"?><!DOCTYPE svg PUBLIC "-//W3C//DTD SVG 1.1//EN" "http://www.w3.org/Graphics/SVG/1.1/DTD/svg11.dtd"><svg t="1610200161818" class="icon" viewBox="0 0 1024 1024" version="1.1" xmlns="http://www.w3.org/2000/svg" p-id="7014" xmlns:xlink="http://www.w3.org/1999/xlink" width="32" height="32"><defs><style type="text/css"></style></defs><path d="M842.629209 814.105572c0-66.74617-53.842279-120.858602-120.241548-120.858602-29.529547 0-56.212256 11.156084-77.159334 28.906353L406.945339 569.060577c9.151427-17.073864 14.845103-36.291554 14.845103-57.057507 0-18.901489-4.690836-36.556591-12.412704-52.483328l238.921531-155.092287c20.48966 16.247033 46.012963 26.324552 74.088392 26.324552 66.398246 0 120.241548-54.117548 120.241548-120.829949 0-66.74617-53.842279-120.858602-120.241548-120.858602s-120.225175 54.117548-120.225175 120.858602c0 16.471137 3.314489 32.190143 9.292644 46.493917l-239.941767 155.788136 2.583848 3.988848c-20.221554-15.481599-45.170782-25.028023-72.553433-25.028023-66.398246 0-120.224152 54.092989-120.224152 120.829949 0 66.74617 53.837162 120.840182 120.224152 120.840182 23.381523 0 44.977377-6.968715 63.434751-18.550495l245.198491 157.52264c-4.944616 13.180184-7.995091 27.347858-7.995091 42.292222 0 66.735937 53.837162 120.840182 120.224152 120.840182s120.275317-54.117548 120.275317-120.840182l0 0L842.629209 814.105572zM688.948061 260.07634l-24.490787-38.102806-0.832971 0.539282c-0.868787-4.085038-1.367137-8.315386-1.367137-12.628622 0-33.389458 26.926256-60.424184 60.124356-60.424184 33.209356 0 60.124356 27.034726 60.124356 60.424184 0 33.350572-26.912953 60.420091-60.124356 60.420091-12.382005 0.002047-23.856337-3.771907-33.42118-10.226922l0 0L688.948061 260.07634zM241.426585 511.980557c0-33.350572 26.912953-60.420091 60.110029-60.420091 33.217543 0 60.133565 27.04496 60.133565 60.420091 0 33.389458-26.912953 60.424184-60.133565 60.424184C268.341584 572.404742 241.426585 545.370015 241.426585 511.980557L241.426585 511.980557zM662.234653 814.105572c0-33.375132 26.926256-60.420091 60.124356-60.420091 33.209356 0 60.124356 27.034726 60.124356 60.420091 0 33.350572-26.912953 60.424184-60.124356 60.424184C689.163979 874.528734 662.234653 847.462285 662.234653 814.105572L662.234653 814.105572 662.234653 814.105572z" p-id="7015" fill="#515151"></path></svg>