<?xml version="1.0" standalone="no"?><!DOCTYPE svg PUBLIC "-//W3C//DTD SVG 1.1//EN" "http://www.w3.org/Graphics/SVG/1.1/DTD/svg11.dtd"><svg t="1615466872009" class="icon" viewBox="0 0 1024 1024" version="1.1" xmlns="http://www.w3.org/2000/svg" p-id="10134" width="32" height="32" xmlns:xlink="http://www.w3.org/1999/xlink"><defs><style type="text/css"></style></defs><path d="M818.156842 132.35033 201.061248 132.35033c-46.080501 0-83.585697 38.284955-83.585697 85.391832l0 588.516698c0 47.077202 37.504172 85.391832 83.585697 85.391832l617.095593 0c46.080501 0 83.585697-38.314631 83.585697-85.391832L901.742539 463.907679l0-9.638521L901.742539 217.742163C901.741515 170.635285 864.237343 132.35033 818.156842 132.35033zM516.183276 325.797158 244.596787 187.357132l545.946137 0L516.183276 325.797158zM847.898213 454.447213l0 9.459442 0 338.222141c0 19.038612-15.146978 34.542724-33.783431 34.542724L205.102285 836.671521c-18.635429 0-33.812083-15.504112-33.812083-34.542724L171.290201 221.87018c0-3.356444 0.997724-6.398734 1.876744-9.469676l329.605903 169.789011c1.155313 0.627287 2.37714 0.950651 3.574409 1.39272 0.750083 0.276293 1.450025 0.654916 2.223644 0.86674 2.337231 0.63445 4.702092 1.007957 7.051603 1.007957 0.011256 0 0.01842-0.004093 0.01842-0.004093 0.020466 0 0.030699 0.004093 0.030699 0.004093 0.036839 0 0.065492-0.01842 0.093121-0.01842 3.689019-0.020466 7.237845-1.010003 10.602476-2.472308 0.421602-0.182149 0.873903-0.096191 1.292436-0.300852l320.18023-161.089885c0.002047 0.104377 0.058328 0.191358 0.058328 0.294712L847.898213 454.447213z" p-id="10135" fill="#707070"></path><path d="M622.782106 606.636381l6.756891-0.132006 0-1.054005c8.921183-2.877537 15.413038-11.271718 15.413038-21.168112 0-12.245905-9.949606-22.196535-22.169929-22.196535l-86.094844 0 0-18.845207 90.028433-88.285742 4.275373-4.40738-0.394996-0.50142c1.847068-3.035126 2.955308-6.493901 3.192715-10.161431 0.369414-5.938246-1.609661-11.665691-5.568832-16.151865-7.759731-8.763594-22.144346-10.003841-31.593556-1.63729l-81.818447 80.683601-86.596264-84.98558c-8.7902-7.812943-23.569812-6.968715-31.329543 1.847068-6.677073 7.495718-7.310499 18.316158-2.242064 26.471908l-0.474814 0.606821 97.972359 95.808066 0 19.558451-86.094844 0-6.756891 0.077771 0 1.056052c-8.92016 2.877537-15.413038 11.269671-15.413038 21.140483 0 9.871835 6.493901 18.264992 15.413038 21.141506l0 1.133823 92.852758 0 0 34.20708-92.852758 0.052189 0 1.056052c-8.947789 2.849908-15.439644 11.244089-15.439644 21.140483 0 9.898441 6.491855 18.290575 15.439644 21.168112l0 1.133823 92.852758 0 0 84.935438 0.077771 6.754844 1.056052 0c2.877537 8.921183 11.269671 15.415085 21.141506 15.415085 9.869788 0 18.262946-6.493901 21.140483-15.415085l1.133823 0L536.688285 685.393095l86.094844 0 6.756891-0.132006 0-1.054005c8.921183-2.877537 15.413038-11.269671 15.413038-21.168112 0-12.245905-9.949606-22.196535-22.169929-22.196535l-86.094844 0 0-34.20708L622.782106 606.635357z" p-id="10136" fill="#707070"></path></svg>