<?xml version="1.0" standalone="no"?><!DOCTYPE svg PUBLIC "-//W3C//DTD SVG 1.1//EN" "http://www.w3.org/Graphics/SVG/1.1/DTD/svg11.dtd"><svg t="1615467279207" class="icon" viewBox="0 0 1024 1024" version="1.1" xmlns="http://www.w3.org/2000/svg" p-id="27976" width="32" height="32" xmlns:xlink="http://www.w3.org/1999/xlink"><defs><style type="text/css"></style></defs><path d="M512 77.6c-230.8 0-418.6 194.3-418.6 433.1 0 178.3 103.5 336.2 263.7 402.3l26.2 10.8 10.7-36.4c35.9-122.3 59.6-203 2.3-318.5-32.5-65.5-80-118.7-114.7-157.6l-0.1-0.1c-2.9-3.2-5.8-6.5-8.8-9.9 13.9 13 28.3 27.4 40.1 39 51.4 51.1 104.6 104 155.5 114 9.8 1.9 19.5 2.9 29 2.9 36.6 0 71.5-14.5 103.7-43 31.8-28.1 62-70.8 89.8-127 19.2-38.7 35.3-66.3 47.7-85.5-6 13.7-12.7 28.1-18.6 41l-0.6 1.2c-6 13-12.9 27.7-19.5 42.6l-9.2 20.2c-30.1 65.5-86.1 187.4-87.8 290.4-1.6 92.2 34 174.2 45 197.2l10.8 22.6 22.8-10.5c151.5-69.3 249.3-224.8 249.3-396C930.7 271.9 742.8 77.6 512 77.6zM203.1 321.2c-10 7.4-15.9 17.4-17.1 29.2-2.8 27.6 21.1 54.4 57.4 95 34.6 38.8 77.7 87 107.1 146.3 22.1 44.6 30.9 84.3 28.4 128.9-2.2 40-13.1 80.9-28.4 133.3-61-30.9-112.3-78.2-148.6-137.2-37.7-61.2-57.6-132.5-57.6-206 0-210.6 164.9-382 367.6-382 85.6 0 168.5 31.1 234.3 87.9-27.7 18.6-61.7 68.4-101.3 148.1-47.9 96.6-94.7 141.6-147.5 141.6-6.3 0-12.9-0.7-19.5-2-35.7-7-85.9-56.8-130.1-100.8l-0.1-0.1c-57.5-57.2-91.5-89.5-121.7-89.5C217.6 313.8 209.7 316.3 203.1 321.2zM879.6 510.7c0 70.8-18.9 140.1-54.8 200.5-34.6 58.2-83.4 105.6-141.4 137.4-10.9-27.8-30.7-87.3-29.6-150.4 1.5-92.3 54.6-207.9 83.2-270l9.4-20.6c6.6-14.8 13.4-29.5 19.3-42.1 18.2-39.2 30.6-66.7 37.3-88 23.1 31.1 41.4 65.4 54.4 102.2C872.1 421.6 879.6 465.7 879.6 510.7z" p-id="27977" fill="#707070"></path><path d="M501.7 483.3c58.7 0 106.4-49.1 106.4-109.4 0-60.3-47.7-109.4-106.4-109.4S395.3 313.7 395.3 374C395.3 434.3 443.1 483.3 501.7 483.3zM446.4 374c0-32.2 24.8-58.3 55.3-58.3S557 341.8 557 374c0 32.1-24.8 58.3-55.3 58.3S446.4 406.1 446.4 374z" p-id="27978" fill="#707070"></path></svg>