<?xml version="1.0" standalone="no"?><!DOCTYPE svg PUBLIC "-//W3C//DTD SVG 1.1//EN" "http://www.w3.org/Graphics/SVG/1.1/DTD/svg11.dtd"><svg t="1615467115057" class="icon" viewBox="0 0 1024 1024" version="1.1" xmlns="http://www.w3.org/2000/svg" p-id="19525" width="32" height="32" xmlns:xlink="http://www.w3.org/1999/xlink"><defs><style type="text/css"></style></defs><path d="M868.352 450.56h-38.912v-83.968c0-55.296-43.008-100.352-94.208-100.352h-409.6l290.816-92.16c6.144-2.048 14.336 2.048 18.432 8.192l16.384 36.864c4.096 10.24 16.384 14.336 26.624 10.24 10.24-4.096 14.336-16.384 10.24-26.624L671.744 163.84c-12.288-24.576-40.96-36.864-67.584-28.672L190.464 266.24c-51.2 0-94.208 45.056-94.208 100.352v423.936c0 55.296 43.008 100.352 94.208 100.352h540.672c53.248 0 94.208-45.056 94.208-100.352v-83.968h38.912c32.768 0 59.392-26.624 59.392-59.392v-137.216c4.096-32.768-22.528-59.392-55.296-59.392z m-81.92 339.968c0 32.768-24.576 59.392-53.248 59.392H192.512c-30.72 0-53.248-26.624-53.248-59.392V366.592C139.264 333.824 163.84 307.2 192.512 307.2H733.184c30.72 0 53.248 26.624 53.248 59.392V450.56H634.88c-32.768 0-59.392 26.624-59.392 59.392v137.216c0 32.768 26.624 59.392 59.392 59.392h151.552v83.968z m100.352-143.36c0 10.24-8.192 18.432-18.432 18.432H634.88c-10.24 0-18.432-8.192-18.432-18.432v-137.216c0-10.24 8.192-18.432 18.432-18.432h231.424c10.24 0 18.432 8.192 18.432 18.432v137.216z" p-id="19526" fill="#d81e06"></path><path d="M733.184 528.384c-28.672 0-51.2 22.528-51.2 51.2s22.528 51.2 51.2 51.2 51.2-22.528 51.2-51.2-22.528-51.2-51.2-51.2z m0 61.44c-6.144 0-10.24-4.096-10.24-10.24s4.096-10.24 10.24-10.24 10.24 4.096 10.24 10.24c0 4.096-4.096 10.24-10.24 10.24z" p-id="19527" fill="#d81e06"></path></svg>